<svg width="248" height="248" viewBox="0 0 248 248" fill="none" xmlns="http://www.w3.org/2000/svg">
<path d="M123.68 0C191.986 0 247.36 55.3733 247.36 123.68C247.36 191.986 191.986 247.36 123.68 247.36C55.3733 247.36 0 191.986 0 123.68C0.000169055 55.3734 55.3734 0.000169099 123.68 0ZM32.3594 153.24H45.1094V114.91L61.5801 139.899H61.9199L78.5498 114.649V153.24H91.4697V94.1299H77.4492L61.9092 119.12L46.3691 94.1299H32.3594V153.24ZM103.551 153.24H116.551V134.33H126.771L139.44 153.24H154.641L140.201 132.13C147.721 129.35 152.871 123.349 152.871 113.81V113.64C152.871 108.07 151.091 103.42 147.801 100.13C143.911 96.2399 138.09 94.1299 130.57 94.1299H103.551V153.24ZM162.49 94.1299V153.24H175.33V115.67L203.95 153.24H215.01V94.1299H202.181V130.52L174.48 94.1299H162.49ZM129.461 105.87C135.801 105.87 139.681 108.74 139.681 114.31V114.479C139.681 119.459 136.051 122.84 129.721 122.84H116.541V105.87H129.461Z" fill="white"/>
</svg>
